<?xml version="1.0" encoding="UTF-8" standalone="no"?>
<!-- Created with Inkscape (http://www.inkscape.org/) -->

<svg
   width="32"
   height="32"
   viewBox="0 0 8.4666665 8.4666666"
   version="1.1"
   id="svg1"
   sodipodi:docname="icon.svg"
   inkscape:version="1.3.2 (091e20e, 2023-11-25, custom)"
   xmlns:inkscape="http://www.inkscape.org/namespaces/inkscape"
   xmlns:sodipodi="http://sodipodi.sourceforge.net/DTD/sodipodi-0.dtd"
   xmlns="http://www.w3.org/2000/svg"
   xmlns:svg="http://www.w3.org/2000/svg">
  <sodipodi:namedview
     id="namedview1"
     pagecolor="#505050"
     bordercolor="#eeeeee"
     borderopacity="1"
     inkscape:showpageshadow="0"
     inkscape:pageopacity="0"
     inkscape:pagecheckerboard="0"
     inkscape:deskcolor="#505050"
     inkscape:document-units="px"
     showgrid="true"
     inkscape:zoom="22.627417"
     inkscape:cx="10.054175"
     inkscape:cy="14.230524"
     inkscape:window-width="2256"
     inkscape:window-height="1415"
     inkscape:window-x="-9"
     inkscape:window-y="-9"
     inkscape:window-maximized="1"
     inkscape:current-layer="layer1">
    <inkscape:grid
       id="grid1"
       units="px"
       originx="0"
       originy="0"
       spacingx="0.26458333"
       spacingy="0.26458333"
       empcolor="#0099e5"
       empopacity="0.30196078"
       color="#0099e5"
       opacity="0.14901961"
       empspacing="5"
       dotted="false"
       gridanglex="30"
       gridanglez="30"
       visible="true" />
  </sodipodi:namedview>
  <defs
     id="defs1" />
  <g
     inkscape:label="Layer 1"
     inkscape:groupmode="layer"
     id="layer1">
    <path
       style="fill:#19ea64;fill-opacity:1;stroke:#ffffff;stroke-width:0.286988;stroke-linecap:round;stroke-dasharray:none;stroke-opacity:1"
       d="M 5.8722486,0.96387101 C 5.7092709,1.5921566 5.5300708,2.0902343 4.9481635,2.6935227 4.4948136,3.1635303 4.1142155,3.1456841 4.0240786,3.8340901 3.9700472,4.2467462 4.0780483,4.3937927 4.4693231,4.9019145 4.8991015,5.0590925 5.2182946,5.1096632 5.5128822,5.0373262 6.1938105,4.870122 6.5242271,4.107595 6.6294848,3.4831464 6.7750487,2.6195797 5.8722486,0.96387101 5.8722486,0.96387101 Z"
       id="path1"
       sodipodi:nodetypes="csscsac" />
    <path
       style="fill:none;fill-opacity:1;stroke:#2e573d;stroke-width:0.264583;stroke-linecap:round;stroke-dasharray:none;stroke-opacity:1"
       d="m 5.9166789,1.2394624 c 0,0 0.066845,1.3535974 -0.1753954,2.0228962 C 5.353076,4.334957 4.3126626,5.0499474 3.4845264,5.8348279"
       id="path2"
       sodipodi:nodetypes="csc" />
    <path
       style="fill:none;fill-opacity:1;stroke:#2e573d;stroke-width:0.286988;stroke-linecap:round;stroke-dasharray:none;stroke-opacity:1"
       d="M 5.8722486,0.96387104 C 5.7092709,1.5921568 5.5300708,2.0902345 4.9481635,2.6935229 4.4948136,3.1635305 4.1142155,3.1456843 4.0240786,3.8340903 3.9700472,4.2467464 4.0780483,4.3937929 4.4693231,4.9019147 4.8991015,5.0590927 5.2182946,5.1096634 5.5128822,5.0373264 6.1938105,4.8701222 6.5242271,4.1075952 6.6294848,3.4831466 6.7750487,2.6195799 5.8722486,0.96387104 5.8722486,0.96387104 Z"
       id="path1-3"
       sodipodi:nodetypes="csscsac" />
    <rect
       style="fill:#2d2d2d;fill-opacity:1;stroke:#ffffff;stroke-width:0.24765;stroke-linecap:round;stroke-dasharray:none;stroke-opacity:1"
       id="rect1"
       width="7.1606827"
       height="2.3981829"
       x="0.65299189"
       y="5.4154921" />
    <rect
       style="fill:#19ea64;fill-opacity:1;stroke-width:0.00177172;stroke-linecap:round"
       id="rect1-7"
       width="0.79374999"
       height="0.79374999"
       x="6.614583"
       y="5.8208332" />
    <rect
       style="fill:#818181;fill-opacity:1;stroke-width:0.00167038;stroke-linecap:round"
       id="rect1-7-8-2"
       width="1.0583333"
       height="0.52916664"
       x="1.0583333"
       y="6.8791666" />
    <rect
       style="fill:#818181;fill-opacity:1;stroke-width:0.00167038;stroke-linecap:round"
       id="rect1-7-8-2-1"
       width="1.0583333"
       height="0.52916664"
       x="2.3812499"
       y="6.8791666" />
    <rect
       style="fill:#818181;fill-opacity:1;stroke-width:0.00167038;stroke-linecap:round"
       id="rect1-7-8-2-5"
       width="1.0583333"
       height="0.52916664"
       x="3.7041667"
       y="6.8791666" />
    <rect
       style="fill:#818181;fill-opacity:1;stroke-width:0.00167038;stroke-linecap:round"
       id="rect1-7-8-2-8"
       width="1.0583333"
       height="0.52916664"
       x="5.0270834"
       y="6.8791666" />
    <rect
       style="fill:#818181;fill-opacity:1;stroke-width:0.00167038;stroke-linecap:round"
       id="rect1-7-8-2-4"
       width="1.0583333"
       height="0.52916664"
       x="6.3499999"
       y="6.8791666" />
  </g>
</svg>
